<svg width="512" height="512" viewBox="0 0 64 64" xmlns="http://www.w3.org/2000/svg">
  <rect x="10" y="12" width="44" height="44" rx="5" fill="#ffffff" stroke="#2563eb" stroke-width="2"/>
  
  <path d="M11 17 C11 13.5 13.5 13 15 13 L49 13 C50.5 13 53 13.5 53 17 L53 22 L11 22 Z" fill="#2563eb"/>
  
  <path d="M22 8 L22 16" stroke="#1e40af" stroke-width="3" stroke-linecap="round"/>
  <path d="M42 8 L42 16" stroke="#1e40af" stroke-width="3" stroke-linecap="round"/>
  
  <rect x="17" y="30" width="8" height="8" rx="2" fill="#dbeafe"/>
  <rect x="28" y="30" width="8" height="8" rx="2" fill="#dbeafe"/>
  <rect x="39" y="30" width="8" height="8" rx="2" fill="#dbeafe"/>
  
  <rect x="17" y="41" width="8" height="8" rx="2" fill="#dbeafe"/>
  <rect x="28" y="41" width="8" height="8" rx="2" fill="#2563eb"/> <rect x="39" y="41" width="8" height="8" rx="2" fill="#dbeafe"/>
</svg>